<?xml version="1.0" encoding="UTF-8"?>
<svg id="l1" xmlns="http://www.w3.org/2000/svg" width="120" height="120" viewBox="0 0 120 120">
  <path d="M60,112h0s-30,0-30,0l-15-26h0L0,60l15-26,15-26C1.3,24.6-8.5,61.3,8.1,90c16.6,28.7,53.2,38.5,82,22h-30Z" fill="none"/>
  <path d="M112,30C95.4,1.3,58.7-8.5,30,8.1h60l15,26,15,26-15,26h0l-15,26c28.7-16.6,38.5-53.2,22-82Z" fill="none"/>
  <polygon points="45 34 60 8.1 30 8.1 45 34 45 34" fill="#dc3219"/>
  <polygon points="75 34 90 8.1 60 8.1 75 34 75 34" fill="#f2993d"/>
  <polygon points="105 34 90 8.1 75 34 105 34" fill="#da5122"/>
  <polygon points="120 60 105 34 90 60 120 60" fill="#f2993d"/>
  <polygon points="90 60 75 34 75 34 60 60 90 60" fill="#dc3219"/>
  <polygon points="30 60 45 86 60 60 30 60" fill="#f5e98f"/>
  <polygon points="45 86 15 86 30 112 45 86 45 86" fill="#dc3219"/>
  <polygon points="0 60 15 86 30 60 0 60" fill="#da5122"/>
  <polygon points="75 86 90 112 105 86 75 86" fill="#dc3219"/>
  <polygon points="105 86 120 60 90 60 105 86" fill="#da5122"/>
  <polygon points="75 86 60 112 90 112 75 86 75 86" fill="#f5e98f"/>
  <polygon points="30 112 60 112 45 86 30 112" fill="#da5122"/>
  <polygon points="30 60 15 34 0 60 30 60 30 60" fill="#dc3219"/>
  <polygon points="45 34 30 8.1 15 34 45 34" fill="#da5122"/>
  <polygon points="45 34 45 34 45 34 75 34 75 34 75 34 75 34 60 8.1 45 34 45 34" fill="#f5e98f"/>
  <polygon points="75 34 75 34 75 34 75 34" fill="#ea5514"/>
  <polygon points="45 34 45 34 45 34 45 34" fill="#ea5514"/>
  <polygon points="45 34 45 34 45 34 45 34 45 34" fill="#ea5514"/>
  <polygon points="45 34 45 34 45 34 45 34 45 34" fill="#ea5514"/>
  <polygon points="45 86 45 86 45 86 30 60 30 60 30 60 30 60 30 60 15 86 15 86 45 86 45 86" fill="#f2993d"/>
  <polygon points="30 60 30 60 30 60 30 60" fill="#ea5514"/>
  <polygon points="30 60 30 60 30 60 30 60" fill="#ea5514"/>
  <polygon points="30 60 30 60 30 60 30 60 30 60 30 60" fill="#ea5514"/>
  <polygon points="60 112 60 112 60 112 60 112" fill="#ea5514"/>
  <polygon points="45 86 45 86 45 86 45 86" fill="#ea5514"/>
  <polygon points="75 86 75 86 45 86 45 86 45 86 45 86 60 112 60 112 75 86 75 86 75 86" fill="#f2993d"/>
  <polygon points="45 86 45 86 45 86 45 86 45 86" fill="#ea5514"/>
  <polygon points="45 86 45 86 45 86 45 86 45 86" fill="#ea5514"/>
  <polygon points="75 86 75 86 75 86 75 86 75 86" fill="#ea5514"/>
  <polygon points="75 86 75 86 75 86 75 86 75 86" fill="#ea5514"/>
  <polygon points="75 34 75 34 75 34 90 60 90 60 90 60 105 34 75 34 75 34" fill="#f5e98f"/>
  <polygon points="75 34 75 34 75 34 75 34 75 34" fill="#ea5514"/>
  <polygon points="75 34 75 34 75 34 75 34 75 34" fill="#ea5514"/>
  <polygon points="90 60 90 60 90 60 90 60" fill="#ea5514"/>
  <polygon points="90 60 90 60 90 60 90 60" fill="#ea5514"/>
</svg>